<svg width="335" height="117" viewBox="0 0 335 117" fill="none" xmlns="http://www.w3.org/2000/svg">
<g clip-path="url(#clip0)">
<path d="M43.1836 58.4258C43.1836 63.0742 42.3047 67.4492 40.5469 71.5508C38.7891 75.6133 36.3867 79.168 33.3398 82.2148C30.332 85.2227 26.7773 87.6055 22.6758 89.3633C18.6133 91.1211 14.2578 92 9.60938 92C6.79688 92 3.98438 91.6484 1.17188 90.9453V72.8984C2.42188 73.6406 3.76953 74.207 5.21484 74.5977C6.66016 74.9883 8.125 75.1836 9.60938 75.1836C11.9141 75.1836 14.082 74.7539 16.1133 73.8945C18.1836 72.9961 19.9805 71.7852 21.5039 70.2617C23.0273 68.7383 24.2188 66.9609 25.0781 64.9297C25.9766 62.8984 26.4258 60.7305 26.4258 58.4258V7.97656H43.1836V58.4258ZM115.957 92H112.09L105.879 83.3867C104.355 84.7539 102.734 86.043 101.016 87.2539C99.3359 88.4258 97.5586 89.4609 95.6836 90.3594C93.8086 91.2188 91.875 91.9023 89.8828 92.4102C87.9297 92.918 85.9375 93.1719 83.9062 93.1719C79.4922 93.1719 75.332 92.4297 71.4258 90.9453C67.5586 89.4609 64.1602 87.3125 61.2305 84.5C58.3398 81.6484 56.0547 78.1719 54.375 74.0703C52.6953 69.9688 51.8555 65.3008 51.8555 60.0664C51.8555 55.1836 52.6953 50.7109 54.375 46.6484C56.0547 42.5469 58.3398 39.0312 61.2305 36.1016C64.1602 33.1719 67.5586 30.9062 71.4258 29.3047C75.332 27.6641 79.4922 26.8438 83.9062 26.8438C85.9375 26.8438 87.9492 27.0977 89.9414 27.6055C91.9336 28.1133 93.8672 28.8164 95.7422 29.7148C97.6172 30.6133 99.3945 31.668 101.074 32.8789C102.793 34.0898 104.395 35.3984 105.879 36.8047L112.09 29.3633H115.957V92ZM99.8438 60.0664C99.8438 57.8789 99.4141 55.7695 98.5547 53.7383C97.7344 51.668 96.6016 49.8516 95.1562 48.2891C93.7109 46.6875 92.0117 45.418 90.0586 44.4805C88.1445 43.5039 86.0938 43.0156 83.9062 43.0156C81.7188 43.0156 79.6484 43.3867 77.6953 44.1289C75.7812 44.8711 74.1016 45.9648 72.6562 47.4102C71.25 48.8555 70.1367 50.6523 69.3164 52.8008C68.4961 54.9102 68.0859 57.332 68.0859 60.0664C68.0859 62.8008 68.4961 65.2422 69.3164 67.3906C70.1367 69.5 71.25 71.2773 72.6562 72.7227C74.1016 74.168 75.7812 75.2617 77.6953 76.0039C79.6484 76.7461 81.7188 77.1172 83.9062 77.1172C86.0938 77.1172 88.1445 76.6484 90.0586 75.7109C92.0117 74.7344 93.7109 73.4648 95.1562 71.9023C96.6016 70.3008 97.7344 68.4844 98.5547 66.4531C99.4141 64.3828 99.8438 62.2539 99.8438 60.0664ZM143.32 115.906V99.793L152.227 99.9102C153.789 99.9102 155.293 99.6562 156.738 99.1484C158.184 98.6406 159.512 97.9375 160.723 97.0391C161.973 96.1406 163.066 95.0664 164.004 93.8164C164.941 92.6055 165.703 91.2773 166.289 89.832C164.531 90.5742 162.734 91.3164 160.898 92.0586C159.102 92.8008 157.285 93.1719 155.449 93.1719C151.582 93.1719 147.949 92.4883 144.551 91.1211C141.152 89.7539 138.164 87.8203 135.586 85.3203C133.047 82.7812 131.035 79.7148 129.551 76.1211C128.105 72.4883 127.383 68.4258 127.383 63.9336V29.2461H143.32V63.9336C143.32 66.1602 143.633 68.1133 144.258 69.793C144.922 71.4336 145.801 72.8203 146.895 73.9531C147.988 75.0469 149.258 75.8672 150.703 76.4141C152.188 76.9609 153.77 77.2344 155.449 77.2344C157.09 77.2344 158.633 76.8633 160.078 76.1211C161.562 75.3398 162.852 74.3242 163.945 73.0742C165.039 71.8242 165.898 70.418 166.523 68.8555C167.148 67.2539 167.461 65.6133 167.461 63.9336V29.2461H183.574V84.0898C183.535 88.5039 182.676 92.6445 180.996 96.5117C179.316 100.379 177.012 103.758 174.082 106.648C171.191 109.539 167.812 111.824 163.945 113.504C160.078 115.184 155.938 116.023 151.523 116.023L143.32 115.906ZM213.633 92L189.727 29.2461H207.949L221.66 68.3867L235.312 29.2461H253.594L229.688 92H213.633ZM278.555 12.1953C278.555 13.6797 278.262 15.0664 277.676 16.3555C277.129 17.6445 276.367 18.7773 275.391 19.7539C274.414 20.6914 273.262 21.4531 271.934 22.0391C270.645 22.5859 269.258 22.8594 267.773 22.8594C266.289 22.8594 264.883 22.5859 263.555 22.0391C262.266 21.4531 261.133 20.6914 260.156 19.7539C259.219 18.7773 258.457 17.6445 257.871 16.3555C257.324 15.0664 257.051 13.6797 257.051 12.1953C257.051 10.75 257.324 9.38281 257.871 8.09375C258.457 6.76562 259.219 5.63281 260.156 4.69531C261.133 3.71875 262.266 2.95703 263.555 2.41016C264.883 1.82422 266.289 1.53125 267.773 1.53125C269.258 1.53125 270.645 1.82422 271.934 2.41016C273.262 2.95703 274.414 3.71875 275.391 4.69531C276.367 5.63281 277.129 6.76562 277.676 8.09375C278.262 9.38281 278.555 10.75 278.555 12.1953ZM275.801 92H259.688V29.2461H275.801V92ZM319.16 73.543H303.164V57.5469H286.523V41.6094H303.164V24.3242H319.16V41.6094H335.742V57.5469H319.16V73.543Z" fill="white"/>
</g>
<defs>
<clipPath id="clip0">
<rect width="335" height="117" fill="white"/>
</clipPath>
</defs>
</svg>
